<svg width="112" height="26" viewBox="0 0 112 26" fill="none" xmlns="http://www.w3.org/2000/svg">
<g clip-path="url(#clip0_6_7278)">
<path d="M25.8868 13.0607C25.8492 19.9648 20.0382 25.5365 12.8871 25.5002C5.73607 25.476 -0.0373889 19.8437 0.000182338 12.9396C0.0377536 6.03554 5.8613 0.46384 12.9998 0.500177C20.1509 0.536514 25.9244 6.15667 25.8868 13.0607Z" fill="#221F1F"/>
<path d="M6.78878 10.1062C7.22711 10.2031 7.71554 9.68229 7.87834 8.94344C8.04115 8.21669 7.82825 7.5384 7.38992 7.45361C7.08935 7.39305 6.77625 7.61107 6.55083 7.97444C6.75121 8.07134 6.8514 8.31359 6.75121 8.5195C6.66354 8.70119 6.46316 8.8102 6.26278 8.76175C6.17511 9.44004 6.38802 10.0214 6.78878 10.1062ZM4.68478 8.56795C5.03545 6.75109 6.12502 5.43084 7.11439 5.61252C8.10377 5.79421 8.61725 7.41727 8.26658 9.23413C7.91592 11.051 6.82635 12.3712 5.83697 12.1896C4.84759 12.0079 4.33412 10.3848 4.68478 8.56795ZM21.8048 10.1062C10.7463 17.2525 3.14436 13.6309 3.14436 13.6309C3.03165 16.114 7.42749 23.7448 12.6875 23.8417C17.9474 23.9265 21.8048 10.1062 21.8048 10.1062ZM5.76183 12.4924C6.91401 12.7104 8.17891 11.269 8.56715 9.29469C8.95539 7.32037 8.3292 5.53985 7.17701 5.32183C6.02483 5.1038 4.77245 6.54518 4.38421 8.5195C3.98345 10.4938 4.60964 12.2743 5.76183 12.4924ZM9.73186 11.4749C10.1201 11.051 10.5584 10.6513 11.0719 10.2758C13.3512 8.58006 15.856 8.15613 16.6575 9.33103C16.9706 9.7913 16.9831 10.4211 16.7452 11.1116C17.5592 9.81553 17.8222 8.6164 17.3087 7.95022C16.4696 6.84799 13.8522 7.59896 11.4727 9.64596C10.7964 10.2274 10.2078 10.8572 9.73186 11.4749ZM12.2742 6.06068C14.1027 4.86156 17.2461 4.20749 18.9243 6.70264C17.9099 0.961361 13.5266 4.26805 12.2742 6.06068ZM25.5494 13.0617C25.5118 19.784 19.8511 25.1983 12.8878 25.1741C5.92464 25.1377 0.351562 19.6629 0.351562 12.9526C0.351562 8.59218 2.59332 5.46718 4.73488 3.78355C7.35235 1.72444 9.13072 3.31117 9.75691 4.49818C9.68177 3.98946 9.46886 2.53597 8.88025 1.48219C10.1702 1.05826 11.5478 0.828125 12.988 0.828125C19.9638 0.864462 25.5744 6.33927 25.5494 13.0617ZM17.5968 19.2026C16.2317 21.5767 14.5285 23.5147 12.6249 23.4783C11.4476 23.4541 10.3205 23.018 9.281 22.3519C9.64419 21.7584 11.6981 18.8635 17.5968 19.2026Z" fill="#05BC52"/>
<path d="M104.725 13.9079L106.052 10.795L107.38 13.92H104.725V13.9079ZM107.981 8.86914H104.136L100.104 17.2267H103.322L104.023 15.5915H108.081L108.77 17.2267H112.001L107.981 8.86914Z" fill="white"/>
<path d="M78.5117 11.013H82.0935V17.2146H85.0366V11.013H88.6184V8.86914H78.5117V11.013Z" fill="white"/>
<path d="M71.6484 13.8716H76.708V12.2001H71.6484V10.9767H77.5721V8.86914H68.793V17.2146H77.785V15.1555H71.6484V13.8716Z" fill="white"/>
<path d="M67.5411 10.359V8.86914H57.998V11.013H63.1327L57.9229 15.7369V17.2146H67.5661V15.0707H62.3938L67.5411 10.359Z" fill="white"/>
<path d="M51.3106 15.2532C49.4321 15.2532 48.2799 14.6355 48.2799 13.0488C48.2799 11.462 49.4196 10.8564 51.3106 10.8564C53.1767 10.8564 54.3539 11.462 54.3539 13.0488C54.3539 14.6355 53.1767 15.2532 51.3106 15.2532ZM51.3106 8.66406C47.541 8.66406 45.1865 10.0691 45.1865 13.0488C45.1865 16.0163 47.541 17.4456 51.3106 17.4456C55.0928 17.4456 57.4473 16.0284 57.4473 13.0488C57.4473 10.0691 55.0928 8.66406 51.3106 8.66406Z" fill="white"/>
<path d="M37.2462 10.8317H40.1016C40.9908 10.8317 41.3289 11.292 41.3289 11.8855C41.3289 12.2852 41.0784 12.9999 40.0515 12.9999H37.2462V10.8317ZM44.3096 11.8855C44.3096 10.1171 43.1449 8.85742 40.3521 8.85742H34.3281V17.215H37.2336V14.8531H39.1122L41.2037 17.215H44.8356L42.406 14.5018C43.6208 14.0052 44.3096 12.9151 44.3096 11.8855Z" fill="white"/>
<path d="M96.1572 8.86914L92.5754 11.9215V8.86914H89.6699V17.2146H92.5754V14.9132L93.6775 14.0169L96.1698 17.2146H99.7891L95.7815 12.2848L99.9269 8.86914H96.1572Z" fill="white"/>
</g>
<defs>
<clipPath id="clip0_6_7278">
<rect width="112" height="25" fill="white" transform="translate(0 0.5)"/>
</clipPath>
</defs>
</svg>
