<svg width="106" height="28" viewBox="0 0 106 28" fill="none" xmlns="http://www.w3.org/2000/svg">
<path d="M47.1247 14.6791C47.1247 18.4065 44.1037 21.1532 40.3963 21.1532C36.6889 21.1532 33.668 18.4065 33.668 14.6791C33.668 10.9255 36.6889 8.20508 40.3963 8.20508C44.1037 8.20508 47.1247 10.9255 47.1247 14.6791ZM44.1793 14.6791C44.1793 12.3499 42.4284 10.7562 40.3963 10.7562C38.3642 10.7562 36.6133 12.3499 36.6133 14.6791C36.6133 16.985 38.3642 18.6021 40.3963 18.6021C42.4284 18.6021 44.1793 16.9821 44.1793 14.6791Z" fill="#EA4335"/>
<path d="M61.6403 14.6791C61.6403 18.4065 58.6193 21.1532 54.9119 21.1532C51.2045 21.1532 48.1836 18.4065 48.1836 14.6791C48.1836 10.9284 51.2045 8.20508 54.9119 8.20508C58.6193 8.20508 61.6403 10.9255 61.6403 14.6791ZM58.6949 14.6791C58.6949 12.3499 56.944 10.7562 54.9119 10.7562C52.8798 10.7562 51.1289 12.3499 51.1289 14.6791C51.1289 16.985 52.8798 18.6021 54.9119 18.6021C56.944 18.6021 58.6949 16.9821 58.6949 14.6791Z" fill="#FBBC05"/>
<path d="M75.5493 8.59621V20.2192C75.5493 25.0003 72.6282 26.953 69.1748 26.953C65.924 26.953 63.9675 24.8543 63.2297 23.138L65.794 22.1077C66.2506 23.1614 67.3695 24.4048 69.1718 24.4048C71.3823 24.4048 72.7522 23.0884 72.7522 20.6103V19.6792H72.6494C71.9901 20.4643 70.7201 21.1503 69.1174 21.1503C65.7638 21.1503 62.6914 18.3306 62.6914 14.7025C62.6914 11.0481 65.7638 8.20508 69.1174 8.20508C70.717 8.20508 71.9871 8.89101 72.6494 9.65284H72.7522V8.59913H75.5493V8.59621ZM72.9608 14.7025C72.9608 12.4228 71.3853 10.7562 69.3804 10.7562C67.3483 10.7562 65.6458 12.4228 65.6458 14.7025C65.6458 16.9588 67.3483 18.6021 69.3804 18.6021C71.3853 18.6021 72.9608 16.9588 72.9608 14.7025Z" fill="#4285F4"/>
<path d="M80.1618 1.78516V20.7578H77.2891V1.78516H80.1618Z" fill="#34A853"/>
<path d="M91.3564 16.8089L93.6425 18.28C92.9047 19.3337 91.1266 21.1493 88.0542 21.1493C84.244 21.1493 81.3984 18.3063 81.3984 14.6752C81.3984 10.8252 84.2682 8.20117 87.7246 8.20117C91.2052 8.20117 92.9077 10.8749 93.4641 12.3197L93.7695 13.0553L84.8034 16.6396C85.4899 17.9385 86.5573 18.6011 88.0542 18.6011C89.5541 18.6011 90.5943 17.8889 91.3564 16.8089ZM84.3196 14.4797L90.3131 12.0774C89.9835 11.2689 88.9916 10.7056 87.8244 10.7056C86.3275 10.7056 84.244 11.9811 84.3196 14.4797Z" fill="#EA4335"/>
<path d="M22.7932 12.9967V10.2501H32.3822C32.476 10.7288 32.5244 11.295 32.5244 11.908C32.5244 13.9687 31.9407 16.5169 30.0598 18.3324C28.2303 20.1713 25.8928 21.1521 22.7962 21.1521C17.0567 21.1521 12.2305 16.6395 12.2305 11.0995C12.2305 5.55945 17.0567 1.04688 22.7962 1.04688C25.9714 1.04688 28.2333 2.24945 29.9328 3.81688L27.9249 5.75501C26.7062 4.65168 25.0551 3.79353 22.7932 3.79353C18.602 3.79353 15.324 7.05391 15.324 11.0995C15.324 15.145 18.602 18.4054 22.7932 18.4054C25.5118 18.4054 27.06 17.3517 28.0519 16.3943C28.8563 15.6179 29.3855 14.5087 29.5941 12.9938L22.7932 12.9967Z" fill="#4285F4"/>
</svg>
