<svg width="50" height="30" viewBox="0 0 50 30" fill="none" xmlns="http://www.w3.org/2000/svg">
<path d="M29.632 8.84857L22.142 8.87367L22.368 22.1514L29.858 22.1263L29.632 8.84857Z" fill="#FF5F00"/>
<path d="M22.6353 15.5392C22.5891 12.8386 23.8386 10.439 25.7956 8.88249C24.3186 7.76016 22.4669 7.08528 20.4596 7.09198C15.7042 7.10785 11.9214 10.9015 12.0012 15.5747C12.0811 20.2479 15.993 24.0158 20.7485 24C22.7558 23.9932 24.5842 23.3061 26.0227 22.174C24.0131 20.6542 22.6814 18.2398 22.6353 15.5392Z" fill="#EB001B"/>
<path d="M39.9988 15.4253C40.0786 20.0985 36.2958 23.8921 31.5404 23.908C29.5331 23.9147 27.6814 23.2399 26.2044 22.1175C28.1853 20.5609 29.4109 18.1614 29.3647 15.4608C29.3186 12.7602 27.9872 10.3693 25.9773 8.82597C27.4158 7.69391 29.2442 7.00675 31.2515 7.00005C36.007 6.98418 39.9193 10.7756 39.9988 15.4253Z" fill="#F79E1B"/>
</svg>
