<svg width="106" height="30" viewBox="0 0 106 30" fill="none" xmlns="http://www.w3.org/2000/svg">
<g clip-path="url(#clip0_6_7636)">
<path d="M20.1967 19.9432H17.8291V12.1777H26.3462V19.9432H23.9786V13.6852H20.1905V19.9432H20.1967Z" fill="#5DB12E"/>
<path d="M29.5746 17.1143C29.5746 15.5384 30.62 15.23 31.2842 15.23C31.9483 15.23 32.9753 15.5384 32.9753 17.1143C32.9753 18.0907 32.5325 19.0214 31.2842 19.0214C30.0358 19.0214 29.5746 18.0907 29.5746 17.1143ZM27.4961 14.305V21.9963H29.6792V19.364C30.411 20.0949 31.5978 20.152 31.8868 20.152C33.9654 20.152 35.2445 18.9186 35.2445 17.1314C35.2445 15.3442 33.9838 14.0938 31.9299 14.0938C31.4133 14.0938 30.411 14.1737 29.5746 14.9845H29.5316L29.5439 14.305H27.4961Z" fill="#5DB12E"/>
<path d="M40.6497 19.2705C39.8441 19.9671 39.0754 20.1556 38.2145 20.1556C35.8654 20.1556 35.7793 18.5111 35.7793 17.8373V14.3086H37.9562V17.569C37.9562 18.6881 38.3744 19.025 39.1738 19.025C40.5513 19.025 40.6497 17.883 40.6497 17.4719V14.3086H42.8328V19.9443H40.6497V19.2705Z" fill="#5DB12E"/>
<path d="M45.9572 15.4392H47.1318C47.7467 15.4392 48.2817 15.5305 48.2817 15.993C48.2817 16.5069 47.4515 16.5126 47.0949 16.5126H45.9633V15.4392H45.9572ZM43.7803 14.3086V19.9443H48.1095C49.69 19.9443 50.7784 19.6531 50.7784 18.4997C50.7784 17.6146 50.2496 17.2264 49.0443 17.0265V16.9923C49.8314 16.8952 50.5201 16.4384 50.5201 15.6733C50.5201 14.3086 48.7983 14.3086 48.128 14.3086H43.7803ZM45.9572 17.569H47.2916C48.3248 17.569 48.54 17.8602 48.54 18.237C48.54 18.4826 48.3986 18.8137 47.3224 18.8137H45.9633V17.569H45.9572Z" fill="#5DB12E"/>
<path d="M56.0477 17.6171C56.0477 18.7476 54.9839 19.0274 54.455 19.0274C54.0553 19.0274 53.3358 18.9075 53.3358 18.3708C53.3358 17.737 54.1537 17.6171 54.6149 17.56C55.4635 17.4515 55.3897 17.48 56.0477 17.2631V17.6171ZM53.5264 16.1325C53.5264 15.2988 54.4734 15.236 54.8609 15.236C55.1068 15.236 56.0108 15.2475 56.0354 15.9783V16.1325C55.9924 16.6864 55.4205 16.5779 53.8155 16.7663C52.4933 16.9319 51.1035 17.2459 51.1035 18.5307C51.1035 18.9989 51.3188 20.1637 53.6433 20.1637C54.5349 20.1637 55.5066 19.9524 56.0785 19.3986H56.1215L56.306 19.9524H58.5998V19.8554C58.1816 19.7754 58.157 19.3986 58.1693 18.7876L58.2124 16.2124C58.2247 15.5558 58.157 14.1055 54.8732 14.1055C54.086 14.1055 51.5463 14.174 51.4479 16.1382H53.5264V16.1325Z" fill="#5DB12E"/>
<path d="M58.459 15.4392V14.3086H65.4571V15.4392H63.0465V19.9443H60.8696V15.4392H58.459Z" fill="#5DB12E"/>
<path d="M68.2416 16.5687H70.2033C70.7752 16.5687 71.9251 16.6258 71.9251 17.5565C71.9251 18.2874 71.095 18.4358 70.1602 18.4358H68.2416V16.5744V16.5687ZM68.2416 13.6852H73.6777V12.1777H65.874V19.9432H70.6645C72.989 19.9432 74.4772 19.1895 74.4772 17.6022C74.4772 15.1184 71.4947 15.0613 70.6645 15.0613H68.2416V13.6852Z" fill="#5DB12E"/>
<path d="M79.841 17.6171C79.841 18.7476 78.7771 19.0274 78.2483 19.0274C77.8485 19.0274 77.129 18.9075 77.129 18.3708C77.129 17.737 77.9469 17.6171 78.402 17.56C79.2506 17.4515 79.1768 17.48 79.8348 17.2631V17.6171H79.841ZM77.3197 16.1325C77.3197 15.2988 78.2667 15.236 78.6541 15.236C78.9001 15.236 79.8041 15.2475 79.8287 15.9783V16.1325C79.7856 16.6864 79.2137 16.5779 77.6026 16.7663C76.2866 16.9319 74.8906 17.2459 74.8906 18.5307C74.8906 18.9989 75.1059 20.1637 77.4304 20.1637C78.3221 20.1637 79.2937 19.9524 79.8656 19.3986H79.9086L80.0931 19.9524H82.3869V19.8554C81.9749 19.7754 81.9441 19.3986 81.9564 18.7876L81.9995 16.2124C82.0118 15.5558 81.9441 14.1055 78.6603 14.1055C77.8731 14.1055 75.3334 14.174 75.235 16.1382H77.3135L77.3197 16.1325Z" fill="#5DB12E"/>
<path d="M85.1174 19.9443H82.9404V14.3086H85.1174V16.427H87.7432V14.3086H89.9201V19.9443H87.7432V17.5575H85.1174V19.9443Z" fill="#5DB12E"/>
<path d="M95.4295 14.3086H97.8524L94.8576 16.9523L98 19.95H95.448L93.0989 17.489H93.0558V19.95H90.8789V14.3143H93.0558V16.5811H93.0989L95.4357 14.3143L95.4295 14.3086Z" fill="#5DB12E"/>
<path d="M7.46076 14.8945H2V19.965H7.46076V14.8945Z" fill="#1A1A18"/>
<path d="M2 7V13.3095H3.44513C7.24553 13.3095 9.17033 15.0967 9.17033 18.6254V19.9673H15.9655V7H2ZM13.0814 9.67796V17.2836H11.9684C11.4887 13.5207 8.9428 11.1568 4.89027 10.7115V9.67796H13.0814Z" fill="#5DB12E"/>
</g>
<defs>
<clipPath id="clip0_6_7636">
<rect width="96" height="15" fill="white" transform="translate(2 7)"/>
</clipPath>
</defs>
</svg>
