<svg width="50" height="30" viewBox="0 0 50 30" fill="none" xmlns="http://www.w3.org/2000/svg">
<g clip-path="url(#clip0_6_7631)">
<g clip-path="url(#clip1_6_7631)">
<path d="M26.7917 10.0176C24.3092 10.0176 22.0905 11.2633 22.0905 13.5644C22.0905 16.2036 26.0252 16.3859 26.0252 17.712C26.0252 18.2703 25.3644 18.77 24.2353 18.77C22.6334 18.77 21.436 18.0718 21.436 18.0718L20.9236 20.3942C20.9236 20.3942 22.303 20.984 24.1342 20.984C26.8484 20.984 28.9845 19.6773 28.9845 17.3366C28.9845 14.5476 25.0333 14.3708 25.0333 13.1403C25.0333 12.7029 25.5758 12.2238 26.7014 12.2238C27.9716 12.2238 29.0076 12.7317 29.0076 12.7317L29.5091 10.4888C29.5091 10.4888 28.3814 10.0176 26.7914 10.0176H26.7917ZM4.07778 10.187L4.01758 10.5254C4.01758 10.5254 5.06198 10.7104 6.00278 11.0797C7.21413 11.5029 7.30023 11.7495 7.50428 12.5145L9.72713 20.8092H12.707L17.2976 10.187H14.3247L11.3749 17.4091L10.1713 11.287C10.061 10.5864 9.50173 10.1866 8.81748 10.1866H4.07813L4.07778 10.187ZM18.4932 10.187L16.1612 20.8092H18.9962L21.3198 10.187H18.4932ZM34.3048 10.187C33.6213 10.187 33.259 10.5414 32.9934 11.1603L28.8399 20.8092H31.8128L32.3879 19.201H36.0097L36.3593 20.8092H38.9826L36.6943 10.187H34.3048ZM34.6916 13.0569L35.5729 17.0428H33.2121L34.6919 13.0569H34.6916Z" fill="#1434CB"/>
</g>
<g clip-path="url(#clip2_6_7631)">
<path d="M182.19 -157.5C111.26 -157.5 47.87 -120.73 47.87 -52.81C47.87 25.09 160.29 30.47 160.29 69.61C160.29 86.09 141.41 100.84 109.15 100.84C63.38 100.84 29.17 80.23 29.17 80.23L14.53 148.78C14.53 148.78 53.94 166.19 106.26 166.19C183.81 166.19 244.84 127.62 244.84 58.53C244.84 -23.79 131.95 -29.01 131.95 -65.33C131.95 -78.24 147.45 -92.38 179.61 -92.38C215.9 -92.38 245.5 -77.39 245.5 -77.39L259.83 -143.59C259.83 -143.59 227.61 -157.5 182.18 -157.5H182.19ZM-466.78 -152.5L-468.5 -142.51C-468.5 -142.51 -438.66 -137.05 -411.78 -126.15C-377.17 -113.66 -374.71 -106.38 -368.88 -83.8L-305.37 161.03H-220.23L-89.07 -152.5H-174.01L-258.29 60.67L-292.68 -120.03C-295.83 -140.71 -311.81 -152.51 -331.36 -152.51H-466.77L-466.78 -152.5ZM-54.91 -152.5L-121.54 161.03H-40.54L25.85 -152.5H-54.91ZM396.85 -152.5C377.32 -152.5 366.97 -142.04 359.38 -123.77L240.71 161.03H325.65L342.08 113.56H445.56L455.55 161.03H530.5L465.12 -152.5H396.85ZM407.9 -67.79L433.08 49.86H365.63L407.91 -67.79H407.9Z" fill="#1434CB"/>
</g>
</g>
<defs>
<clipPath id="clip0_6_7631">
<rect width="50" height="30" fill="white"/>
</clipPath>
<clipPath id="clip1_6_7631">
<rect width="35" height="11" fill="white" transform="translate(4 10)"/>
</clipPath>
<clipPath id="clip2_6_7631">
<rect width="1000" height="324.68" fill="white" transform="translate(-469 -158)"/>
</clipPath>
</defs>
</svg>
